<svg width="16" height="16" fill="#ffffff" viewBox="0 0 24 24" xmlns="http://www.w3.org/2000/svg">
 <path d="M7.049 11.892 8.077 10.8l.546.515c3.452 3.252 6.915 5.23 10.99 6.238.55-1.5.599-3.15.124-4.761-.63-2.137-2.097-4-4.242-5.385-1.886-1.218-3.59-1.504-5.394-1.806-.99-.166-2.016-.338-3.134-.676-2.052-.623-4.204-2.473-4.226-2.49l-1.176-1.02L1.5 2.968c-.005.12-.114 2.98.666 6.927.824 4.172 2.355 7.306 4.55 9.31 1.782 1.627 4.108 2.527 6.42 2.527.435 0 .87-.032 1.301-.097 1.956-.296 3.583-1.278 4.5-2.707-4.195-1.09-7.779-3.166-11.343-6.523l-.545-.514Z"></path>
 <path d="M21.91 18.013a26.024 26.024 0 0 1-2.297-.458 7.426 7.426 0 0 1-.675 1.377c.904.235 1.82.422 2.744.563l.742.114.227-1.482-.74-.114Z"></path>
</svg>